<?xml version="1.0" standalone="no"?>
<!DOCTYPE svg PUBLIC "-//W3C//DTD SVG 20010904//EN"
 "http://www.w3.org/TR/2001/REC-SVG-20010904/DTD/svg10.dtd">
<svg version="1.0" xmlns="http://www.w3.org/2000/svg"
 width="479.000000pt" height="411.000000pt" viewBox="0 0 479.000000 411.000000"
 preserveAspectRatio="xMidYMid meet">

<g transform="translate(0.000000,411.000000) scale(0.100000,-0.100000)"
fill="#000000" stroke="none">
<path d="M2212 3826 c-129 -33 -274 -138 -337 -245 l-30 -51 -247 0 c-136 0
-258 -4 -272 -10 -51 -19 -55 -39 -68 -303 l-12 -247 -140 -69 c-209 -103
-306 -199 -306 -302 0 -106 103 -176 325 -217 l90 -18 -3 -96 c-2 -53 -1 -106
3 -117 16 -53 -21 -51 1137 -51 845 0 1078 3 1098 13 45 23 49 47 40 237 -5
96 -12 231 -16 300 l-6 125 73 37 c385 196 452 405 153 482 -32 8 -88 17 -124
20 l-65 6 60 -14 c141 -33 248 -87 266 -134 15 -40 -7 -87 -68 -141 -66 -59
-291 -179 -297 -159 -2 7 -10 139 -16 293 -6 154 -17 293 -23 309 -19 51 -50
56 -321 56 l-244 0 -26 44 c-57 97 -170 189 -291 235 -75 29 -250 38 -333 17z
m340 -386 c5 -107 7 -260 5 -340 -2 -130 -4 -145 -20 -148 -17 -4 -55 23 -177
123 l-55 45 -161 -7 c-193 -7 -202 -3 -128 66 185 173 408 379 464 429 62 56
64 51 72 -168z m-759 -52 c-13 -84 -7 -218 12 -273 67 -198 207 -335 400 -391
71 -20 198 -22 275 -4 204 46 371 212 425 420 17 65 17 224 0 278 l-7 22 226
0 226 0 0 -22 c1 -13 7 -149 14 -303 8 -154 12 -283 10 -287 -7 -11 -172 -68
-319 -109 -511 -145 -1023 -226 -1484 -236 l-254 -6 6 174 c13 366 28 706 33
747 l5 42 220 0 220 0 -8 -52z m-557 -645 c-4 -82 -9 -172 -13 -200 l-5 -53
-37 0 c-20 0 -74 9 -120 20 -125 30 -181 72 -165 122 10 32 82 106 144 148 64
43 181 110 194 110 5 0 5 -65 2 -147z m2145 -20 c5 -45 24 -520 22 -525 -3 -5
-477 -8 -1055 -8 l-1051 0 7 61 c3 34 6 71 6 83 0 21 3 21 238 22 248 1 394
14 677 59 386 62 781 167 1065 283 81 34 90 36 91 25z"/>
<path d="M1014 1997 c-52 -45 -26 -150 46 -188 33 -18 85 -19 1290 -19 1401 0
1298 -5 1347 69 34 51 31 103 -8 135 l-31 26 -1308 0 -1309 0 -27 -23z m1737
-57 c11 -6 19 -21 19 -35 0 -14 -8 -29 -19 -35 -13 -6 -156 -10 -398 -10 -326
0 -382 2 -401 16 -26 18 -28 31 -5 56 15 17 41 18 400 18 246 0 391 -4 404
-10z"/>
<path d="M2127 1352 c-51 -53 -24 -140 49 -158 41 -11 96 22 110 66 22 68 -18
120 -91 120 -32 0 -47 -6 -68 -28z"/>
<path d="M2710 1225 c0 -63 -2 -115 -4 -115 -2 0 -20 7 -39 15 -49 20 -133 19
-182 -4 -46 -21 -101 -79 -122 -130 -9 -20 -15 -66 -15 -106 0 -115 47 -200
136 -241 60 -28 119 -30 178 -7 30 12 43 13 46 5 2 -8 30 -12 78 -12 l74 0 0
355 0 355 -75 0 -75 0 0 -115z m-64 -230 c23 -10 39 -26 49 -49 27 -63 18
-113 -28 -163 -28 -31 -98 -32 -127 -3 -58 58 -51 171 14 211 37 23 46 23 92
4z"/>
<path d="M3936 1324 c-3 -9 -6 -161 -6 -339 0 -178 3 -330 6 -339 5 -13 22
-16 80 -16 l74 0 0 100 c0 55 3 100 8 100 4 0 37 -44 73 -98 l66 -97 92 -3
c50 -1 91 0 91 4 0 3 -40 62 -90 131 -49 68 -90 129 -90 134 0 6 38 58 85 115
47 57 85 106 85 109 0 3 -40 5 -88 5 l-88 0 -59 -76 c-33 -41 -61 -80 -63 -85
-2 -5 -8 -9 -13 -9 -5 0 -9 82 -9 190 l0 190 -74 0 c-58 0 -75 -3 -80 -16z"/>
<path d="M433 1140 c-66 -10 -138 -51 -159 -92 -11 -22 -15 -48 -12 -85 7 -76
38 -106 146 -139 73 -23 83 -28 80 -47 -5 -34 -76 -35 -195 -1 -22 6 -23 4
-23 -64 l0 -71 43 -12 c23 -6 79 -9 124 -7 141 7 213 64 213 168 0 84 -48 129
-173 161 -50 12 -68 32 -49 51 15 15 100 11 150 -6 l42 -15 1 44 c1 25 1 54 1
65 0 37 -2 39 -39 45 -74 12 -99 12 -150 5z"/>
<path d="M891 1139 c-23 -5 -62 -19 -85 -33 -130 -76 -157 -278 -54 -401 63
-74 200 -104 323 -70 l65 17 0 68 0 67 -52 -13 c-103 -27 -218 -7 -226 38 -3
16 10 17 149 17 175 -1 175 -1 166 87 -17 161 -134 252 -286 223z m107 -152
c7 -6 18 -19 23 -29 9 -17 4 -18 -81 -18 -89 0 -90 0 -80 21 23 42 100 56 138
26z"/>
<path d="M3133 1140 c-90 -19 -161 -83 -187 -171 -31 -103 -15 -186 51 -259
61 -68 130 -94 238 -88 44 3 97 12 118 21 l37 16 0 67 c0 57 -2 65 -16 60 -92
-35 -209 -33 -249 4 -34 32 -31 42 13 40 20 -1 92 -2 160 -1 l122 1 0 59 c0
107 -46 193 -122 229 -54 25 -111 33 -165 22z m80 -139 c27 -10 57 -38 57 -52
0 -5 -38 -9 -85 -9 -47 0 -85 2 -85 4 0 19 18 40 44 52 38 16 39 16 69 5z"/>
<path d="M3665 1143 c-102 -14 -167 -57 -185 -123 -11 -42 -4 -94 17 -127 17
-26 83 -59 149 -76 53 -13 79 -41 54 -57 -22 -14 -87 -12 -150 5 -30 8 -58 15
-62 15 -5 0 -8 -31 -8 -69 l0 -69 44 -11 c63 -15 163 -14 223 4 170 51 157
264 -18 305 -67 15 -100 35 -93 55 8 20 112 20 161 0 19 -8 37 -15 39 -15 2 0
4 33 4 74 l0 75 -47 6 c-88 12 -98 12 -128 8z"/>
<path d="M1440 1125 c-22 -10 -36 -12 -38 -5 -2 6 -37 10 -83 10 l-80 0 3
-247 3 -248 77 -3 77 -3 3 156 3 157 28 24 c21 18 40 24 73 24 l44 0 0 57 c0
33 4 53 9 48 7 -9 93 -251 148 -417 l16 -48 92 0 92 0 81 233 c44 127 84 240
88 250 6 16 0 18 -76 15 l-82 -3 -45 -140 c-25 -77 -48 -143 -52 -147 -4 -4
-29 60 -56 142 l-49 150 -62 0 c-33 0 -88 2 -120 5 -42 4 -69 1 -94 -10z"/>
<path d="M2120 880 l0 -251 78 3 77 3 2 248 3 247 -80 0 -80 0 0 -250z"/>
</g>
</svg>
